
<svg width="561.2" height="90.002" viewBox="0 0 561.2 90.002" xmlns="http://www.w3.org/2000/svg"><g id="svgGroup" stroke-linecap="round" fill-rule="evenodd" font-size="9pt" stroke="#000" stroke-width="0.25mm" fill="#000" style="stroke:#000;stroke-width:0.25mm;fill:#000"><path d="M 402 80.801 L 402.7 81.601 Q 404.829 84.503 406.957 81.696 A 7.676 7.676 0 0 0 407.1 81.501 Q 408 80.001 409.15 77.551 A 49.971 49.971 0 0 0 409.903 75.858 Q 410.741 73.885 411.734 71.181 A 157.712 157.712 0 0 0 411.8 71.001 L 392.4 24.601 A 19.228 19.228 0 0 0 391.867 23.294 Q 391.403 22.274 390.9 21.551 Q 390.253 20.62 388.95 19.918 A 9.555 9.555 0 0 0 388.3 19.601 L 386.5 18.901 L 386.5 17.901 L 411.4 17.901 L 411.4 18.801 L 409.4 19.601 Q 408.294 19.953 407.731 20.52 A 1.918 1.918 0 0 0 407.15 21.851 A 5.737 5.737 0 0 0 407.147 22.035 Q 407.147 23.536 407.9 25.701 L 418.3 52.701 L 428.2 25.401 A 14.091 14.091 0 0 0 428.578 24.14 Q 428.929 22.71 428.81 21.633 A 4.562 4.562 0 0 0 428.8 21.551 A 2.076 2.076 0 0 0 427.911 20.107 Q 427.553 19.844 427.055 19.645 A 6.357 6.357 0 0 0 426.3 19.401 L 424.2 18.901 L 424.2 17.901 L 438.1 17.901 L 438.1 18.901 L 435.9 19.601 Q 434.425 20.05 433.526 20.745 A 3.877 3.877 0 0 0 432.7 21.601 A 9.918 9.918 0 0 0 432.066 22.664 Q 431.513 23.727 431 25.201 L 414.9 69.101 Q 411.285 78.835 407.669 84.014 A 28.525 28.525 0 0 1 407.1 84.801 A 13.633 13.633 0 0 1 403.554 88.166 A 11.908 11.908 0 0 1 397 90.001 A 12.956 12.956 0 0 1 394.392 89.753 Q 392.174 89.297 390.65 88.001 A 6.548 6.548 0 0 1 388.783 85.484 A 6.756 6.756 0 0 1 388.3 82.901 Q 388.3 80.101 390.3 78.401 Q 392.3 76.701 394.8 76.701 Q 397.3 76.701 399 77.751 A 8.725 8.725 0 0 1 400.878 79.332 A 11.576 11.576 0 0 1 402 80.801 Z M 217.4 66.001 L 193.9 66.001 L 193.9 65.001 L 195.3 64.601 A 5.297 5.297 0 0 0 197.108 63.722 Q 198.324 62.781 198.666 61.115 A 7.033 7.033 0 0 0 198.8 59.701 L 198.8 28.401 A 11.027 11.027 0 0 0 198.745 27.254 Q 198.622 26.087 198.229 25.364 A 2.794 2.794 0 0 0 198.1 25.151 A 2.617 2.617 0 0 0 197.317 24.405 Q 196.61 23.952 195.472 23.715 A 9.181 9.181 0 0 0 195.4 23.701 L 193.9 23.301 L 193.9 22.301 L 211 16.501 L 212 17.501 L 212.8 23.501 Q 216.3 20.401 220.7 18.401 A 22.652 22.652 0 0 1 225.754 16.756 A 19.075 19.075 0 0 1 229.4 16.401 A 19.399 19.399 0 0 1 233.403 16.788 Q 235.901 17.315 237.792 18.559 A 10.783 10.783 0 0 1 239.55 20.001 A 11.138 11.138 0 0 1 242.098 24.21 Q 243.1 27.069 243.1 31.001 L 243.1 59.801 A 5.985 5.985 0 0 0 243.399 61.759 Q 244.165 63.981 246.9 64.701 L 247.8 65.001 L 247.8 66.001 L 224.2 66.001 L 224.2 65.001 L 225.5 64.601 Q 228.428 63.68 228.907 60.87 A 6.969 6.969 0 0 0 229 59.701 L 229 27.801 A 9.213 9.213 0 0 0 228.683 25.268 Q 227.87 22.428 224.97 21.673 A 9.429 9.429 0 0 0 222.6 21.401 A 10.5 10.5 0 0 0 218.819 22.155 Q 217.303 22.739 215.705 23.774 A 26.63 26.63 0 0 0 213 25.801 L 213 59.801 Q 213 63.701 216.5 64.701 L 217.4 65.001 L 217.4 66.001 Z M 97.1 63.501 L 97.2 51.601 L 98.2 51.601 L 101.6 57.601 A 24.845 24.845 0 0 0 103.295 60.287 Q 104.249 61.592 105.275 62.564 A 12.394 12.394 0 0 0 106.45 63.551 A 9.689 9.689 0 0 0 110.108 65.179 Q 111.446 65.48 112.993 65.499 A 17.01 17.01 0 0 0 113.2 65.501 A 17.493 17.493 0 0 0 116.411 65.223 Q 118.274 64.875 119.761 64.091 A 9.686 9.686 0 0 0 120.95 63.351 Q 123.821 61.258 123.898 57.792 A 8.647 8.647 0 0 0 123.9 57.601 A 8.466 8.466 0 0 0 123.527 55.03 A 6.898 6.898 0 0 0 121.8 52.201 Q 120.061 50.461 115.851 48.996 A 43.222 43.222 0 0 0 114 48.401 L 109.8 47.101 Q 103.7 45.301 100.2 41.501 A 13.123 13.123 0 0 1 96.708 32.712 A 16.919 16.919 0 0 1 96.7 32.201 A 14.261 14.261 0 0 1 101.252 21.602 A 18.828 18.828 0 0 1 101.9 21.001 A 16.889 16.889 0 0 1 108.109 17.587 Q 111.875 16.401 116.8 16.401 A 31.881 31.881 0 0 1 122.174 16.84 A 27.886 27.886 0 0 1 124.15 17.251 Q 127.6 18.101 130.8 19.801 L 130.2 30.601 L 129.2 30.601 L 125.7 24.401 Q 123.867 21.216 122.08 19.847 A 6.974 6.974 0 0 0 121.95 19.751 A 5.954 5.954 0 0 0 120.303 18.928 Q 118.713 18.401 116.4 18.401 Q 113 18.401 110 20.301 A 6.742 6.742 0 0 0 108.114 22.029 Q 107.105 23.423 107.01 25.306 A 7.859 7.859 0 0 0 107 25.701 Q 107 29.101 109.55 31.101 A 15.826 15.826 0 0 0 111.593 32.44 Q 113.784 33.665 116.998 34.766 A 51.813 51.813 0 0 0 117.1 34.801 L 121.6 36.101 Q 128.8 38.301 131.9 42.151 A 13.977 13.977 0 0 1 134.952 50.075 A 17.859 17.859 0 0 1 135 51.401 Q 135 58.568 129.457 62.94 A 17.894 17.894 0 0 1 129.25 63.101 A 19.375 19.375 0 0 1 123.085 66.185 Q 118.788 67.501 113.1 67.501 Q 108.2 67.501 104.3 66.351 A 42.49 42.49 0 0 1 98.842 64.341 A 37.199 37.199 0 0 1 97.1 63.501 Z M 299.1 66.001 L 273.7 66.001 L 273.7 65.001 L 275.5 64.301 Q 276.798 63.781 277.57 63.094 A 3.681 3.681 0 0 0 278.25 62.301 Q 279 61.101 279 59.101 L 279 6.901 Q 279 5.5 278.667 4.5 A 4.192 4.192 0 0 0 278.25 3.601 A 3.58 3.58 0 0 0 277.375 2.662 Q 276.945 2.332 276.375 2.059 A 8.557 8.557 0 0 0 275.5 1.701 L 273.7 1.001 L 273.7 0.001 L 302.4 0.001 A 52.93 52.93 0 0 1 308.564 0.333 Q 315.018 1.093 318.823 3.586 A 13.374 13.374 0 0 1 320 4.451 A 15.1 15.1 0 0 1 323.785 8.966 A 14.038 14.038 0 0 1 325.4 15.701 A 12.625 12.625 0 0 1 322.691 23.496 A 17.098 17.098 0 0 1 321.45 24.951 Q 317.752 28.836 309.103 30.574 A 53.184 53.184 0 0 1 307.9 30.801 A 49.823 49.823 0 0 1 313.621 31.741 Q 319.981 33.199 323.605 36.21 A 14.807 14.807 0 0 1 324 36.551 A 15.658 15.658 0 0 1 327.575 41.074 A 14.079 14.079 0 0 1 329.1 47.601 A 15.648 15.648 0 0 1 328.246 52.631 A 18.754 18.754 0 0 1 327.7 54.051 A 13.934 13.934 0 0 1 325.37 57.693 A 19.081 19.081 0 0 1 322.95 60.001 Q 319.6 62.701 313.8 64.351 Q 309.586 65.549 303.736 65.877 A 82.992 82.992 0 0 1 299.1 66.001 Z M 72.6 38.701 L 72.6 30.801 Q 72.6 24.001 70.95 21.251 Q 69.3 18.501 65.8 18.501 A 5.997 5.997 0 0 0 64.141 18.718 A 4.502 4.502 0 0 0 62 20.051 A 5.077 5.077 0 0 0 61.189 21.31 Q 60.584 22.602 60.297 24.613 A 21.681 21.681 0 0 0 60.2 25.401 L 60 26.501 A 16.328 16.328 0 0 1 59.737 28.823 Q 59.244 31.386 57.9 32.801 A 6.201 6.201 0 0 1 53.396 34.798 A 7.71 7.71 0 0 1 53.2 34.801 A 6.926 6.926 0 0 1 51.106 34.497 A 5.671 5.671 0 0 1 48.9 33.201 A 5.308 5.308 0 0 1 47.282 30.029 A 7.546 7.546 0 0 1 47.2 28.901 Q 47.2 24.801 50.05 22.001 A 15.568 15.568 0 0 1 53.842 19.293 A 21.563 21.563 0 0 1 57.6 17.801 A 33.712 33.712 0 0 1 64.441 16.537 A 40.447 40.447 0 0 1 67.8 16.401 A 29.215 29.215 0 0 1 73.198 16.867 Q 76.221 17.436 78.599 18.699 A 14.773 14.773 0 0 1 81.55 20.751 Q 85.332 24.142 86.165 30.846 A 32.927 32.927 0 0 1 86.4 34.901 L 86.4 57.001 Q 86.4 61.501 90.6 61.501 L 92.8 61.501 L 93.7 62.301 Q 91.8 64.701 89.55 66.001 Q 87.96 66.92 85.444 67.189 A 21.134 21.134 0 0 1 83.2 67.301 A 15.265 15.265 0 0 1 80.394 67.058 Q 78.811 66.762 77.556 66.103 A 8.033 8.033 0 0 1 76.25 65.251 A 9.504 9.504 0 0 1 72.993 60.168 A 11.87 11.87 0 0 1 72.9 59.801 A 44.789 44.789 0 0 1 69.092 63.429 A 37.165 37.165 0 0 1 66.75 65.251 Q 63.824 67.341 59.302 67.489 A 21.366 21.366 0 0 1 58.6 67.501 A 16.854 16.854 0 0 1 53.763 66.835 A 13.682 13.682 0 0 1 48.85 64.201 A 10.697 10.697 0 0 1 45.196 57.874 A 16.196 16.196 0 0 1 44.9 54.701 A 9.403 9.403 0 0 1 46.593 49.384 Q 47.515 48.006 48.941 46.708 A 19.974 19.974 0 0 1 49.7 46.051 A 20.148 20.148 0 0 1 53.65 43.565 Q 57.713 41.574 63.804 40.301 A 71.737 71.737 0 0 1 64.8 40.101 A 257.288 257.288 0 0 1 66.472 39.793 Q 67.385 39.628 68.4 39.451 Q 70.4 39.101 72.6 38.701 Z M 486.6 40.901 L 456.8 40.901 A 50.133 50.133 0 0 0 457.111 46.211 Q 457.762 51.805 459.764 55.159 A 12.048 12.048 0 0 0 460.65 56.451 A 12.078 12.078 0 0 0 467.827 60.804 A 18.779 18.779 0 0 0 471.8 61.201 A 25.648 25.648 0 0 0 475.013 61.011 Q 477.866 60.651 479.9 59.601 A 18.018 18.018 0 0 0 483.575 57.054 A 23.359 23.359 0 0 0 485.7 54.901 L 486.7 55.801 Q 483.6 61.301 478.45 64.401 A 21.218 21.218 0 0 1 471.212 67.065 A 28.72 28.72 0 0 1 466.1 67.501 A 28.175 28.175 0 0 1 459.008 66.64 A 23.43 23.43 0 0 1 453.5 64.451 Q 448 61.401 444.9 55.701 A 24.88 24.88 0 0 1 442.317 48.184 A 34.192 34.192 0 0 1 441.8 42.101 A 31.144 31.144 0 0 1 442.465 35.506 A 22.841 22.841 0 0 1 445.4 28.151 A 24.847 24.847 0 0 1 451.634 21.306 A 23.554 23.554 0 0 1 454.65 19.401 Q 460.3 16.401 466.5 16.401 Q 473 16.401 477.6 19.051 Q 482.2 21.701 484.65 26.251 Q 487.1 30.801 487.1 36.601 Q 487.1 37.701 487 38.851 Q 486.9 40.001 486.6 40.901 Z M 14.8 60.101 L 16.6 63.201 A 1.918 1.918 0 0 0 16.971 63.597 A 1.383 1.383 0 0 0 17.85 63.901 Q 18.556 63.901 18.863 63.104 A 2.366 2.366 0 0 0 18.9 63.001 A 14.119 14.119 0 0 0 19.226 61.65 Q 19.493 60.278 19.658 58.369 A 56.315 56.315 0 0 0 19.75 57.151 A 104.905 104.905 0 0 0 19.903 54.031 Q 19.952 52.634 19.976 51.077 A 209.434 209.434 0 0 0 20 47.801 Q 20 41.501 19.7 31.601 Q 19.4 21.701 19.1 7.201 Q 19.1 2.901 15.9 1.801 L 13.6 1.001 L 13.6 0.001 L 39.8 0.001 L 39.8 1.001 L 37.6 1.801 A 7.153 7.153 0 0 0 36.588 2.282 Q 36.077 2.58 35.711 2.934 A 3.166 3.166 0 0 0 35.15 3.651 A 4.276 4.276 0 0 0 34.757 4.635 Q 34.501 5.576 34.5 6.89 A 13.285 13.285 0 0 0 34.5 6.901 L 34.5 26.701 A 177.387 177.387 0 0 1 34.394 33.036 Q 34.191 38.701 33.6 42.901 A 53.887 53.887 0 0 1 32.602 48.175 Q 31.825 51.357 30.7 54.001 A 21.215 21.215 0 0 1 26.958 60.464 A 19.273 19.273 0 0 1 22.55 64.251 Q 16.9 67.801 10.2 67.801 A 20.342 20.342 0 0 1 7.358 67.615 Q 5.915 67.411 4.738 66.982 A 8.628 8.628 0 0 1 2.65 65.901 A 6.533 6.533 0 0 1 0.889 64.071 Q 0 62.654 0 60.801 Q 0 58.001 1.95 56.501 Q 3.9 55.001 6.5 55.001 A 9.991 9.991 0 0 1 9.094 55.325 A 8.33 8.33 0 0 1 11.1 56.151 Q 13.1 57.301 14.8 60.101 Z M 497.6 54.101 L 497.6 19.901 L 490.7 19.901 L 490.7 18.901 L 493.1 18.501 A 22.338 22.338 0 0 0 495.904 17.682 A 16.447 16.447 0 0 0 498.45 16.501 A 19.328 19.328 0 0 0 500.966 14.753 A 25.417 25.417 0 0 0 502.9 13.001 L 511.1 3.901 L 512.1 3.901 L 511.8 17.901 L 523 17.901 L 523 19.901 L 511.7 19.901 L 511.7 55.901 Q 511.7 58.184 512.36 59.743 A 5.491 5.491 0 0 0 513.25 61.201 Q 514.8 63.001 517.2 63.001 A 7.123 7.123 0 0 0 519.348 62.686 A 6.212 6.212 0 0 0 520.9 61.951 Q 522.4 60.966 523.9 59.323 A 22.778 22.778 0 0 0 524.1 59.101 L 525.1 60.101 Q 523.1 63.501 519.6 65.501 A 14.662 14.662 0 0 1 515.188 67.118 Q 513.288 67.501 511.1 67.501 Q 506.315 67.501 503.123 65.711 A 10.878 10.878 0 0 1 501.15 64.301 Q 498.315 61.745 497.744 56.766 A 23.425 23.425 0 0 1 497.6 54.101 Z M 533.7 54.101 L 533.7 19.901 L 526.8 19.901 L 526.8 18.901 L 529.2 18.501 A 22.338 22.338 0 0 0 532.004 17.682 A 16.447 16.447 0 0 0 534.55 16.501 A 19.328 19.328 0 0 0 537.066 14.753 A 25.417 25.417 0 0 0 539 13.001 L 547.2 3.901 L 548.2 3.901 L 547.9 17.901 L 559.1 17.901 L 559.1 19.901 L 547.8 19.901 L 547.8 55.901 Q 547.8 58.184 548.46 59.743 A 5.491 5.491 0 0 0 549.35 61.201 Q 550.9 63.001 553.3 63.001 A 7.123 7.123 0 0 0 555.448 62.686 A 6.212 6.212 0 0 0 557 61.951 Q 558.5 60.966 560 59.323 A 22.778 22.778 0 0 0 560.2 59.101 L 561.2 60.101 Q 559.2 63.501 555.7 65.501 A 14.662 14.662 0 0 1 551.288 67.118 Q 549.388 67.501 547.2 67.501 Q 542.415 67.501 539.223 65.711 A 10.878 10.878 0 0 1 537.25 64.301 Q 534.415 61.745 533.844 56.766 A 23.425 23.425 0 0 1 533.7 54.101 Z M 158.015 66.808 A 30.855 30.855 0 0 0 164.7 67.501 A 31.743 31.743 0 0 0 170.112 67.058 A 23.735 23.735 0 0 0 177.85 64.351 Q 183.4 61.201 186.45 55.451 A 25.344 25.344 0 0 0 188.917 48.301 A 34.506 34.506 0 0 0 189.5 41.801 Q 189.5 33.901 186.25 28.201 Q 183 22.501 177.4 19.451 A 24.168 24.168 0 0 0 172.213 17.366 A 28.303 28.303 0 0 0 164.7 16.401 A 30.782 30.782 0 0 0 162.089 16.509 A 25.284 25.284 0 0 0 151.95 19.501 Q 146.3 22.601 143.05 28.301 A 23.867 23.867 0 0 0 140.491 35.056 A 31.449 31.449 0 0 0 139.8 41.801 A 34.759 34.759 0 0 0 140.229 47.369 A 26.112 26.112 0 0 0 142.85 55.401 Q 145.9 61.201 151.5 64.351 A 23.633 23.633 0 0 0 158.015 66.808 Z M 351.915 66.808 A 30.855 30.855 0 0 0 358.6 67.501 A 31.743 31.743 0 0 0 364.012 67.058 A 23.735 23.735 0 0 0 371.75 64.351 Q 377.3 61.201 380.35 55.451 A 25.344 25.344 0 0 0 382.817 48.301 A 34.506 34.506 0 0 0 383.4 41.801 Q 383.4 33.901 380.15 28.201 Q 376.9 22.501 371.3 19.451 A 24.168 24.168 0 0 0 366.113 17.366 A 28.303 28.303 0 0 0 358.6 16.401 A 30.782 30.782 0 0 0 355.989 16.509 A 25.284 25.284 0 0 0 345.85 19.501 Q 340.2 22.601 336.95 28.301 A 23.867 23.867 0 0 0 334.391 35.056 A 31.449 31.449 0 0 0 333.7 41.801 A 34.759 34.759 0 0 0 334.129 47.369 A 26.112 26.112 0 0 0 336.75 55.401 Q 339.8 61.201 345.4 64.351 A 23.633 23.633 0 0 0 351.915 66.808 Z M 164.7 65.501 A 9.923 9.923 0 0 0 167.123 65.221 A 6.987 6.987 0 0 0 170.3 63.501 Q 172.206 61.686 173.165 57.318 A 29.356 29.356 0 0 0 173.35 56.401 A 44.149 44.149 0 0 0 173.846 52.853 Q 174.3 48.431 174.3 42.001 Q 174.3 32.601 173.35 27.501 A 25.171 25.171 0 0 0 172.745 24.943 Q 171.984 22.383 170.806 20.947 A 6.056 6.056 0 0 0 170.3 20.401 A 7.078 7.078 0 0 0 166.751 18.596 A 10.249 10.249 0 0 0 164.7 18.401 A 9.965 9.965 0 0 0 162.218 18.694 A 7.193 7.193 0 0 0 159.05 20.401 A 7.207 7.207 0 0 0 157.714 22.142 Q 156.574 24.154 155.95 27.501 A 43.84 43.84 0 0 0 155.46 31.008 Q 155.09 34.594 155.018 39.527 A 169.191 169.191 0 0 0 155 42.001 Q 155 49.666 155.646 54.478 A 38.403 38.403 0 0 0 155.95 56.401 A 24.488 24.488 0 0 0 156.56 58.958 Q 157.346 61.575 158.588 63.018 A 6.019 6.019 0 0 0 159.05 63.501 A 7.314 7.314 0 0 0 162.741 65.324 A 10.405 10.405 0 0 0 164.7 65.501 Z M 358.6 65.501 A 9.923 9.923 0 0 0 361.023 65.221 A 6.987 6.987 0 0 0 364.2 63.501 Q 366.106 61.686 367.065 57.318 A 29.356 29.356 0 0 0 367.25 56.401 A 44.149 44.149 0 0 0 367.746 52.853 Q 368.2 48.431 368.2 42.001 Q 368.2 32.601 367.25 27.501 A 25.171 25.171 0 0 0 366.645 24.943 Q 365.884 22.383 364.706 20.947 A 6.056 6.056 0 0 0 364.2 20.401 A 7.078 7.078 0 0 0 360.651 18.596 A 10.249 10.249 0 0 0 358.6 18.401 A 9.965 9.965 0 0 0 356.118 18.694 A 7.193 7.193 0 0 0 352.95 20.401 A 7.207 7.207 0 0 0 351.614 22.142 Q 350.474 24.154 349.85 27.501 A 43.84 43.84 0 0 0 349.36 31.008 Q 348.99 34.594 348.918 39.527 A 169.191 169.191 0 0 0 348.9 42.001 Q 348.9 49.666 349.546 54.478 A 38.403 38.403 0 0 0 349.85 56.401 A 24.488 24.488 0 0 0 350.46 58.958 Q 351.246 61.575 352.488 63.018 A 6.019 6.019 0 0 0 352.95 63.501 A 7.314 7.314 0 0 0 356.641 65.324 A 10.405 10.405 0 0 0 358.6 65.501 Z M 293.8 32.701 L 293.8 64.001 L 298.8 64.001 A 22.304 22.304 0 0 0 303.013 63.629 Q 305.385 63.172 307.215 62.154 A 10.746 10.746 0 0 0 309.95 60.001 A 12.154 12.154 0 0 0 312.347 55.916 Q 313.6 52.481 313.6 47.501 Q 313.6 39.501 310.1 36.101 Q 306.6 32.701 298.6 32.701 L 293.8 32.701 Z M 293.8 2.001 L 293.8 30.701 L 298.1 30.701 A 22.823 22.823 0 0 0 301.567 30.456 Q 305.629 29.83 307.75 27.601 Q 310.418 24.797 310.673 18.233 A 36.859 36.859 0 0 0 310.7 16.801 Q 310.7 8.801 308 5.401 A 8.308 8.308 0 0 0 304.101 2.723 Q 302.012 2.001 299.2 2.001 L 293.8 2.001 Z M 456.8 38.901 L 473.9 38.901 A 95.399 95.399 0 0 0 474.118 36.09 Q 474.659 27.358 473.1 23.201 A 8.395 8.395 0 0 0 471.697 20.721 Q 470.082 18.799 467.372 18.469 A 9.684 9.684 0 0 0 466.2 18.401 A 7.992 7.992 0 0 0 463.474 18.852 A 7.115 7.115 0 0 0 461.25 20.151 A 7.05 7.05 0 0 0 459.907 21.736 Q 458.903 23.308 458.202 25.79 A 25.972 25.972 0 0 0 458.05 26.351 A 30.137 30.137 0 0 0 457.434 29.488 Q 456.949 32.791 456.829 37.368 A 112.215 112.215 0 0 0 456.8 38.901 Z M 72.6 57.501 L 72.6 40.701 L 70.6 41.101 Q 69.6 41.301 68.3 41.501 A 18.324 18.324 0 0 0 64.629 42.866 A 13.616 13.616 0 0 0 60.95 45.551 A 9.565 9.565 0 0 0 58.476 50.358 A 13.947 13.947 0 0 0 58.2 53.201 A 14.16 14.16 0 0 0 58.368 55.454 Q 58.764 57.909 60.1 59.351 A 6.461 6.461 0 0 0 62.129 60.855 A 6.056 6.056 0 0 0 64.7 61.401 Q 66.7 61.401 68.45 60.451 Q 70.2 59.501 72.6 57.501 Z" vector-effect="non-scaling-stroke"/></g></svg>
