<svg width="226.801" height="66.301" viewBox="0 0 226.801 66.301" xmlns="http://www.w3.org/2000/svg"><g id="svgGroup" stroke-linecap="round" fill-rule="evenodd" font-size="9pt" stroke="#000" stroke-width="0.25mm" fill="#000" style="stroke:#000;stroke-width:0.25mm;fill:#000"><path d="M 4.5 62.25 A 13.561 13.561 0 0 0 7.874 64.457 Q 11.831 66.3 17.7 66.3 Q 32.9 66.3 39.1 52.6 A 37.645 37.645 0 0 0 40.035 50.263 Q 41.32 46.717 42.085 42.513 A 69.405 69.405 0 0 0 43.05 34.25 A 268.528 268.528 0 0 0 43.423 25.581 Q 43.547 21.059 43.547 16.165 A 413.24 413.24 0 0 0 43.5 10 A 7.638 7.638 0 0 0 44.133 8.961 A 9.435 9.435 0 0 0 44.75 7.4 A 11.495 11.495 0 0 0 44.968 6.565 A 9.604 9.604 0 0 0 45.2 4.5 A 7.934 7.934 0 0 0 45.196 4.233 Q 45.167 3.388 44.954 2.82 A 2.048 2.048 0 0 0 44.6 2.2 A 2.098 2.098 0 0 0 44.04 1.747 Q 43.477 1.426 42.6 1.3 A 12.113 12.113 0 0 0 42.399 1.269 Q 41.167 1.085 38.45 0.9 Q 35.5 0.7 30.7 0.7 Q 24.9 0.7 20.35 0.95 A 325.72 325.72 0 0 0 17.619 1.111 Q 14.738 1.294 12.4 1.5 A 17.775 17.775 0 0 0 11.722 1.575 Q 10.877 1.685 10.147 1.868 A 9.373 9.373 0 0 0 8.7 2.35 Q 7.2 3 6.1 4.5 A 9.841 9.841 0 0 0 5.514 5.352 A 11.241 11.241 0 0 0 4.5 7.5 Q 3.9 9.2 3.9 11 A 8.924 8.924 0 0 0 3.902 11.18 Q 3.918 11.998 4.089 12.397 A 0.795 0.795 0 0 0 4.25 12.65 A 0.871 0.871 0 0 0 4.259 12.659 Q 4.512 12.905 4.991 12.973 A 2.884 2.884 0 0 0 5.4 13 Q 6.156 13 7.196 12.811 A 20.081 20.081 0 0 0 8.2 12.6 Q 11.706 11.707 17.056 11.427 A 100.953 100.953 0 0 1 22.3 11.3 Q 24.9 11.3 27.8 11.4 Q 30.7 11.5 33.2 11.7 A 61.147 61.147 0 0 1 33.931 15.845 Q 34.337 18.681 34.578 21.961 A 133.78 133.78 0 0 1 34.9 29.2 Q 34.9 32 34.85 35.1 Q 34.8 38.2 34.6 40.6 Q 34.358 43.846 33.482 46.446 A 15.314 15.314 0 0 1 30.9 51.25 A 9.368 9.368 0 0 1 28.201 53.521 Q 25.229 55.2 20.6 55.2 A 23.106 23.106 0 0 1 19.355 55.168 Q 15.1 54.938 12.3 53.1 Q 9.1 51 9.1 46.4 A 13.355 13.355 0 0 1 9.271 44.225 A 9.848 9.848 0 0 1 11.2 39.7 Q 11.5 39.3 11.75 38.75 A 2.678 2.678 0 0 0 11.932 38.192 A 3.352 3.352 0 0 0 12 37.5 A 3.12 3.12 0 0 0 11.997 37.364 A 2.325 2.325 0 0 0 11.25 35.7 A 2.352 2.352 0 0 0 11.043 35.528 Q 10.618 35.214 10.046 35.087 A 3.897 3.897 0 0 0 9.2 35 A 2.092 2.092 0 0 0 9.173 35.001 Q 8.769 35.006 8.233 35.166 A 7.002 7.002 0 0 0 7.7 35.35 Q 6.8 35.7 5.4 37.1 Q 4.3 38.2 3.058 40.033 A 40.958 40.958 0 0 0 1.9 41.85 A 11.2 11.2 0 0 0 0.845 44.209 Q 0.396 45.603 0.186 47.292 A 26.006 26.006 0 0 0 0 50.5 A 25.716 25.716 0 0 0 0.006 51.026 Q 0.155 58.34 4.5 62.25 Z M 119.5 10.2 L 119.5 14.7 A 118.974 118.974 0 0 0 119.975 25.557 A 93.936 93.936 0 0 0 121 33.3 A 99.285 99.285 0 0 0 122.114 38.766 Q 123.256 43.622 124.7 47.1 A 26.864 26.864 0 0 0 127.615 52.627 A 22.251 22.251 0 0 0 130.8 56.3 A 12.278 12.278 0 0 1 131.412 56.843 Q 132.113 57.511 132.4 58.05 A 3.328 3.328 0 0 1 132.775 59.203 A 3.147 3.147 0 0 1 132.8 59.6 A 4.259 4.259 0 0 1 132.405 61.358 Q 132.148 61.931 131.723 62.503 A 7.691 7.691 0 0 1 131.65 62.6 A 9.214 9.214 0 0 1 129.253 64.771 A 10.864 10.864 0 0 1 128.7 65.1 Q 126.9 66.1 125 66.1 A 6.373 6.373 0 0 1 120.232 63.998 A 9.035 9.035 0 0 1 119.75 63.45 A 14.27 14.27 0 0 1 118.454 61.515 Q 117.262 59.419 116.119 56.217 A 61.319 61.319 0 0 1 115.6 54.7 A 63.786 63.786 0 0 1 114.206 49.924 A 56.721 56.721 0 0 1 113.95 48.85 A 50.47 50.47 0 0 1 113.103 44.148 A 45.285 45.285 0 0 1 113 43.3 Q 111.912 44.974 111 45.702 A 3.606 3.606 0 0 1 110.65 45.95 Q 109.6 46.6 107.6 46.6 Q 102.7 46.6 97.2 46.45 A 3025.892 3025.892 0 0 0 92.617 46.329 Q 90.519 46.275 88.633 46.229 A 1775.483 1775.483 0 0 0 87.4 46.2 Q 87.2 48 87.05 49.85 Q 86.9 51.7 86.9 53.5 Q 86.9 55.1 87.05 56.7 A 117.133 117.133 0 0 1 87.274 59.424 A 105.896 105.896 0 0 1 87.3 59.8 A 5.512 5.512 0 0 1 87.332 60.388 Q 87.332 62.399 85.758 63.792 A 6.549 6.549 0 0 1 85.1 64.3 A 9.56 9.56 0 0 1 81.608 65.741 A 13.441 13.441 0 0 1 78.9 66 A 5.322 5.322 0 0 1 77.693 65.876 Q 75.7 65.41 75.7 63.2 A 9.554 9.554 0 0 1 75.771 62.112 Q 75.953 60.546 76.6 58.1 Q 76.944 56.519 77.193 55.245 A 83.847 83.847 0 0 0 77.4 54.15 A 25.722 25.722 0 0 0 77.558 53.183 Q 77.691 52.254 77.7 51.593 A 6.969 6.969 0 0 0 77.7 51.5 A 7.143 7.143 0 0 0 77.58 50.14 Q 77.435 49.394 77.115 48.834 A 3.045 3.045 0 0 0 76 47.7 A 3.581 3.581 0 0 1 75.308 47.196 A 2.126 2.126 0 0 1 74.6 45.6 A 6.623 6.623 0 0 1 74.678 44.63 Q 74.806 43.763 75.15 42.7 Q 75.7 41 76.6 39.55 A 12.942 12.942 0 0 1 77.139 38.746 Q 77.744 37.918 78.3 37.5 Q 78.902 37.157 79.725 36.887 A 11.366 11.366 0 0 1 80 36.8 A 8.127 8.127 0 0 1 80.821 36.603 Q 81.273 36.518 81.798 36.461 A 17.212 17.212 0 0 1 82.5 36.4 Q 86.141 25.944 90.61 18.146 A 77.426 77.426 0 0 1 91.25 17.05 Q 95.28 10.279 99.758 6.062 A 32.585 32.585 0 0 1 101.6 4.45 A 22.851 22.851 0 0 1 105.753 1.739 Q 109.238 0 112.8 0 A 8.191 8.191 0 0 1 114.779 0.224 A 5.131 5.131 0 0 1 117.9 2.35 Q 119.5 4.7 119.5 10.2 Z M 175.331 65.892 A 27.454 27.454 0 0 0 179.6 66.2 A 36.123 36.123 0 0 0 181.48 66.152 A 30.523 30.523 0 0 0 193.5 63.1 A 30.306 30.306 0 0 0 194.744 62.472 A 25.29 25.29 0 0 0 203.8 54.5 Q 207.6 49 207.6 42.3 A 20.984 20.984 0 0 0 207.393 39.276 Q 205.989 29.643 195.1 27.9 A 21.37 21.37 0 0 0 195.482 27.572 A 18.595 18.595 0 0 0 199.9 21.9 Q 201.6 18.5 201.6 14.5 A 17.102 17.102 0 0 0 201.574 13.546 A 12.506 12.506 0 0 0 197.3 4.5 Q 194.34 1.884 189.483 1.069 A 28.956 28.956 0 0 0 184.7 0.7 A 38.201 38.201 0 0 0 182.191 0.782 A 32.696 32.696 0 0 0 175.15 2 A 43.803 43.803 0 0 0 173.763 2.43 Q 172.04 2.996 170.579 3.646 A 22.925 22.925 0 0 0 167.8 5.1 Q 166.078 6.11 164.938 7.207 A 8.596 8.596 0 0 0 163.65 8.75 A 7.64 7.64 0 0 0 162.631 11.251 A 10.43 10.43 0 0 0 162.4 13.5 Q 162.4 15.511 162.899 16.399 A 1.215 1.215 0 0 0 164 17.1 Q 164.8 17.1 166.5 16.1 A 46.303 46.303 0 0 1 166.507 16.173 Q 166.8 19.458 166.8 24.7 Q 166.8 29.3 166.4 33.15 Q 166.175 35.316 165.824 37.814 A 188.179 188.179 0 0 1 165.2 41.9 A 390.944 390.944 0 0 0 164.907 43.928 Q 164.606 46.05 164.4 47.7 Q 164.213 49.2 164.142 50.427 A 24.09 24.09 0 0 0 164.1 51.8 A 19.493 19.493 0 0 0 164.497 55.836 A 13.451 13.451 0 0 0 167.7 62.25 Q 170.295 65.097 175.331 65.892 Z M 183.6 55.1 Q 188.1 55.1 191.75 53.85 A 16.113 16.113 0 0 0 194.853 52.426 A 12.318 12.318 0 0 0 197.6 50.2 Q 199.8 47.8 199.8 44.6 A 9.022 9.022 0 0 0 199.545 42.378 A 5.556 5.556 0 0 0 196.9 38.8 A 12.377 12.377 0 0 0 192.044 37.207 A 15.612 15.612 0 0 0 190.2 37.1 A 22.09 22.09 0 0 0 188.947 37.139 Q 188.342 37.174 187.656 37.239 A 49.724 49.724 0 0 0 186.2 37.4 Q 185.271 37.586 184.082 37.599 A 16.492 16.492 0 0 1 183.9 37.6 A 4.428 4.428 0 0 1 180.552 36.147 A 5.876 5.876 0 0 1 180.25 35.8 A 6.467 6.467 0 0 1 178.915 32.748 A 8.8 8.8 0 0 1 178.8 31.3 A 3.198 3.198 0 0 1 178.924 30.378 Q 179.231 29.357 180.303 28.965 A 3.239 3.239 0 0 1 180.5 28.9 A 31.438 31.438 0 0 0 185.235 27.284 Q 187.539 26.264 189.132 24.971 A 8.897 8.897 0 0 0 192.7 17.8 Q 192.7 12.43 186.379 11.638 A 19.178 19.178 0 0 0 184 11.5 Q 180.8 11.5 176.1 12.6 A 106.528 106.528 0 0 1 175.819 20.203 A 122.345 122.345 0 0 1 175.6 22.85 A 140.406 140.406 0 0 1 174.569 31.128 A 160.905 160.905 0 0 1 174.1 34 A 440.63 440.63 0 0 0 173.685 36.825 Q 173.527 37.928 173.393 38.91 A 209.543 209.543 0 0 0 173.15 40.75 A 59.207 59.207 0 0 0 172.966 42.367 Q 172.811 43.921 172.801 45.043 A 17.22 17.22 0 0 0 172.8 45.2 Q 172.8 50.6 175.5 52.85 A 8.529 8.529 0 0 0 178.244 54.343 Q 179.493 54.768 181.028 54.955 A 21.383 21.383 0 0 0 183.6 55.1 Z M 105.2 35.3 L 112.2 35.3 Q 112 32.5 111.85 29.4 Q 111.7 26.3 111.7 22.9 L 111.7 17.1 A 20.571 20.571 0 0 0 111.669 15.925 Q 111.558 13.993 111.05 13.25 A 1.93 1.93 0 0 0 110.17 12.561 Q 109.827 12.418 109.389 12.354 A 5.421 5.421 0 0 0 108.6 12.3 A 8.538 8.538 0 0 0 104.389 13.482 Q 101.726 14.977 99.062 18.363 A 32.565 32.565 0 0 0 98.8 18.7 Q 93.9 25.1 90.4 35.8 A 40964.704 40964.704 0 0 1 93.906 35.657 Q 95.297 35.601 96.571 35.549 A 23549.429 23549.429 0 0 1 99 35.45 Q 102.656 35.302 105.141 35.3 A 84.243 84.243 0 0 1 105.2 35.3 Z M 58.961 65.592 A 7.085 7.085 0 0 0 61.1 65.9 A 8.422 8.422 0 0 0 61.37 65.896 A 6.367 6.367 0 0 0 65.9 63.95 A 6.454 6.454 0 0 0 67.437 61.424 A 7.755 7.755 0 0 0 67.8 59 A 8.049 8.049 0 0 0 67.7 57.709 A 5.704 5.704 0 0 0 66.1 54.5 A 5.574 5.574 0 0 0 63.601 53.055 A 7.48 7.48 0 0 0 61.6 52.8 A 8.721 8.721 0 0 0 60.69 52.847 A 6.409 6.409 0 0 0 56.7 54.7 A 6.275 6.275 0 0 0 55.19 57.078 A 7.254 7.254 0 0 0 54.8 59.5 A 8.266 8.266 0 0 0 54.843 60.351 A 6.116 6.116 0 0 0 56.55 64.1 A 5.709 5.709 0 0 0 58.961 65.592 Z M 143.461 65.592 A 7.085 7.085 0 0 0 145.6 65.9 A 8.422 8.422 0 0 0 145.87 65.896 A 6.367 6.367 0 0 0 150.4 63.95 A 6.454 6.454 0 0 0 151.937 61.424 A 7.755 7.755 0 0 0 152.3 59 A 8.049 8.049 0 0 0 152.2 57.709 A 5.704 5.704 0 0 0 150.6 54.5 A 5.574 5.574 0 0 0 148.101 53.055 A 7.48 7.48 0 0 0 146.1 52.8 A 8.721 8.721 0 0 0 145.19 52.847 A 6.409 6.409 0 0 0 141.2 54.7 A 6.275 6.275 0 0 0 139.69 57.078 A 7.254 7.254 0 0 0 139.3 59.5 A 8.266 8.266 0 0 0 139.343 60.351 A 6.116 6.116 0 0 0 141.05 64.1 A 5.709 5.709 0 0 0 143.461 65.592 Z M 217.961 65.592 A 7.085 7.085 0 0 0 220.1 65.9 A 8.422 8.422 0 0 0 220.37 65.896 A 6.367 6.367 0 0 0 224.9 63.95 A 6.454 6.454 0 0 0 226.437 61.424 A 7.755 7.755 0 0 0 226.8 59 A 8.049 8.049 0 0 0 226.7 57.709 A 5.704 5.704 0 0 0 225.1 54.5 A 5.574 5.574 0 0 0 222.601 53.055 A 7.48 7.48 0 0 0 220.6 52.8 A 8.721 8.721 0 0 0 219.69 52.847 A 6.409 6.409 0 0 0 215.7 54.7 A 6.275 6.275 0 0 0 214.19 57.078 A 7.254 7.254 0 0 0 213.8 59.5 A 8.266 8.266 0 0 0 213.843 60.351 A 6.116 6.116 0 0 0 215.55 64.1 A 5.709 5.709 0 0 0 217.961 65.592 Z" vector-effect="non-scaling-stroke"/></g></svg>
